<svg width="16" height="16" viewBox="0 0 16 16" fill="none" xmlns="http://www.w3.org/2000/svg">
<path fill-rule="evenodd" clip-rule="evenodd" d="M0.951862 5.17806C0.903972 5.12852 0.865976 5.06966 0.840051 5.00487C0.814126 4.94008 0.800781 4.87062 0.800781 4.80047C0.800781 4.73032 0.814126 4.66086 0.840051 4.59607C0.865976 4.53128 0.903972 4.47243 0.951862 4.42289L5.06589 0.1564C5.16245 0.0562589 5.29342 0 5.42998 0C5.56654 0 5.6975 0.0562589 5.79407 0.1564C5.89063 0.256542 5.94488 0.392363 5.94488 0.533985C5.94488 0.675606 5.89063 0.811427 5.79407 0.911569L2.55736 4.26716H12.6295C13.3115 4.26716 13.9655 4.5481 14.4477 5.04818C14.9299 5.54825 15.2008 6.2265 15.2008 6.93372V15.4667C15.2008 15.6081 15.1466 15.7438 15.0502 15.8438C14.9537 15.9438 14.8229 16 14.6865 16C14.5501 16 14.4193 15.9438 14.3229 15.8438C14.2265 15.7438 14.1723 15.6081 14.1723 15.4667V6.93372C14.1723 6.50939 14.0097 6.10244 13.7204 5.80239C13.4311 5.50235 13.0387 5.33378 12.6295 5.33378H2.55736L5.79407 8.68937C5.84188 8.73896 5.87981 8.79782 5.90568 8.86261C5.93156 8.9274 5.94488 8.99683 5.94488 9.06696C5.94488 9.13708 5.93156 9.20652 5.90568 9.27131C5.87981 9.33609 5.84188 9.39496 5.79407 9.44454C5.74625 9.49413 5.68949 9.53346 5.62702 9.5603C5.56455 9.58713 5.49759 9.60094 5.42998 9.60094C5.36236 9.60094 5.2954 9.58713 5.23293 9.5603C5.17046 9.53346 5.1137 9.49413 5.06589 9.44454L0.951862 5.17806Z" fill="black"/>
</svg>
